<?xml version="1.0" encoding="UTF-8"?>
<svg xmlns="http://www.w3.org/2000/svg" xmlns:xlink="http://www.w3.org/1999/xlink" width="2400" height="2400" viewBox="0 0 2400 2400">

<path fill-rule="nonzero" fill="rgb(13.729858%, 12.159729%, 12.548828%)" fill-opacity="1" d="M 1596.398438 1200.03125 L 1596.398438 803.628906 L 1024.339844 803.628906 C 1032.710938 789.28125 1041.339844 774.628906 1050.179688 759.730469 L 1640.300781 759.730469 L 1640.300781 1200.03125 L 1596.398438 1200.03125 "/>
<path fill-rule="nonzero" fill="rgb(13.729858%, 12.159729%, 12.548828%)" fill-opacity="1" d="M 1341.421875 1640.328125 L 759.699219 1640.328125 L 759.699219 1200.03125 L 803.601562 1200.03125 L 803.601562 1596.421875 L 1297.511719 1596.421875 L 1341.421875 1640.328125 "/>
<path fill-rule="nonzero" fill="rgb(13.729858%, 12.159729%, 12.548828%)" fill-opacity="1" d="M 1531.109375 1245.75 C 1546.121094 1245.75 1560.28125 1248.660156 1573.601562 1254.480469 C 1586.921875 1260.300781 1598.460938 1268.078125 1608.21875 1277.839844 C 1617.980469 1287.589844 1625.761719 1299.230469 1631.578125 1312.738281 C 1637.398438 1326.25 1640.300781 1340.511719 1640.300781 1355.511719 C 1640.300781 1370.519531 1637.398438 1384.691406 1631.578125 1398.011719 C 1625.761719 1411.335938 1617.980469 1422.960938 1608.21875 1432.90625 C 1598.460938 1442.855469 1586.921875 1450.730469 1573.601562 1456.546875 C 1560.28125 1462.367188 1546.121094 1465.277344 1531.109375 1465.277344 L 1253.609375 1464.710938 L 1253.609375 1596.421875 L 1297.511719 1596.421875 L 1297.511719 1508.617188 L 1341.421875 1508.617188 L 1341.421875 1640.328125 L 1209.710938 1640.328125 L 1209.710938 1420.808594 L 1531.109375 1421.375 C 1540.109375 1421.375 1548.558594 1419.585938 1556.441406 1416.023438 C 1564.308594 1412.460938 1571.25 1407.765625 1577.261719 1401.953125 C 1583.269531 1396.140625 1587.949219 1389.191406 1591.328125 1381.128906 C 1594.710938 1373.058594 1596.398438 1364.519531 1596.398438 1355.511719 C 1596.398438 1346.511719 1594.710938 1337.96875 1591.328125 1329.898438 C 1587.949219 1321.839844 1583.269531 1314.800781 1577.261719 1308.800781 C 1571.25 1302.789062 1564.308594 1298.101562 1556.441406 1294.71875 C 1548.558594 1291.339844 1540.109375 1289.660156 1531.109375 1289.660156 L 1253.609375 1289.660156 L 1253.609375 1333.558594 L 1531.109375 1333.558594 C 1536.738281 1333.941406 1541.609375 1336.191406 1545.738281 1340.308594 C 1549.871094 1344.441406 1551.929688 1349.511719 1551.929688 1355.511719 C 1551.929688 1361.519531 1549.871094 1366.589844 1545.738281 1370.71875 C 1541.609375 1374.839844 1536.359375 1377.089844 1529.980469 1377.46875 L 1209.710938 1377.46875 L 1209.710938 1245.75 L 1531.109375 1245.75 "/>
<path fill-rule="nonzero" fill="rgb(13.729858%, 12.159729%, 12.548828%)" fill-opacity="1" d="M 1191.980469 759.671875 L 1055.769531 956.679688 L 1191.980469 1154.25 L 1032.691406 1154.25 L 975.839844 1072.070312 L 918.992188 1154.25 L 759.699219 1154.25 L 949.386719 879.570312 L 897.039062 803.578125 L 843.5625 803.578125 L 895.910156 879.570312 L 869.460938 917.839844 L 759.699219 759.671875 L 919.550781 759.671875 L 1002.859375 879.570312 L 843.5625 1110.339844 L 895.910156 1110.339844 L 975.839844 994.949219 L 1055.769531 1110.339844 L 1108.679688 1110.339844 L 1002.289062 956.679688 L 1108.121094 803.578125 L 1054.648438 803.578125 L 1029.308594 840.730469 L 1002.289062 801.890625 L 1032.691406 759.671875 L 1191.980469 759.671875 "/>
</svg>
